<mxfile host="app.diagrams.net" modified="2021-05-10T07:31:20.964Z" agent="5.0 (Windows NT 6.1; Win64; x64) AppleWebKit/537.36 (KHTML, like Gecko) Chrome/83.0.4103.116 Safari/537.36" etag="GmM94mMH4_CLOO7kN351" version="14.5.3" type="github">
  <diagram id="uXs_KTZq0Z6gpUMFukZV" name="Page-1">
    <mxGraphModel dx="1218" dy="635" grid="1" gridSize="10" guides="1" tooltips="1" connect="1" arrows="1" fold="1" page="1" pageScale="1" pageWidth="827" pageHeight="1169" math="0" shadow="0">
      <root>
        <mxCell id="0" />
        <mxCell id="1" parent="0" />
        <mxCell id="_VI_5lEFwDJ5-Uq1NYuy-1" value="blk_mq_ctx" style="rounded=0;whiteSpace=wrap;html=1;" vertex="1" parent="1">
          <mxGeometry x="184" y="240" width="85" height="30" as="geometry" />
        </mxCell>
        <mxCell id="_VI_5lEFwDJ5-Uq1NYuy-4" value="&lt;font color=&quot;#05467e&quot; face=&quot;helvetica neue, helvetica, arial, pingfang sc, hiragino sans gb, wenquanyi micro hei, microsoft yahei, sans-serif&quot;&gt;&lt;span style=&quot;font-size: 14px&quot;&gt;blk_mq_tags&lt;/span&gt;&lt;/font&gt;" style="rounded=0;whiteSpace=wrap;html=1;" vertex="1" parent="1">
          <mxGeometry x="770" y="170" width="100" height="30" as="geometry" />
        </mxCell>
        <mxCell id="_VI_5lEFwDJ5-Uq1NYuy-6" value="&lt;font color=&quot;#333333&quot; face=&quot;helvetica neue, helvetica, arial, pingfang sc, hiragino sans gb, wenquanyi micro hei, microsoft yahei, sans-serif&quot;&gt;&lt;span style=&quot;font-size: 14px&quot;&gt;blk_mq_ctxs&lt;/span&gt;&lt;/font&gt;" style="rounded=0;whiteSpace=wrap;html=1;" vertex="1" parent="1">
          <mxGeometry y="265" width="100" height="60" as="geometry" />
        </mxCell>
        <mxCell id="_VI_5lEFwDJ5-Uq1NYuy-7" value="" style="rounded=0;whiteSpace=wrap;html=1;" vertex="1" parent="1">
          <mxGeometry x="540" y="210" width="160" height="160" as="geometry" />
        </mxCell>
        <mxCell id="_VI_5lEFwDJ5-Uq1NYuy-8" value="" style="rounded=0;whiteSpace=wrap;html=1;" vertex="1" parent="1">
          <mxGeometry x="550" y="250" width="140" height="110" as="geometry" />
        </mxCell>
        <mxCell id="_VI_5lEFwDJ5-Uq1NYuy-9" value="nullb" style="text;html=1;strokeColor=none;fillColor=none;align=center;verticalAlign=middle;whiteSpace=wrap;rounded=0;" vertex="1" parent="1">
          <mxGeometry x="595" y="190" width="40" height="20" as="geometry" />
        </mxCell>
        <mxCell id="_VI_5lEFwDJ5-Uq1NYuy-10" value="" style="rounded=0;whiteSpace=wrap;html=1;" vertex="1" parent="1">
          <mxGeometry x="560" y="304" width="95" height="30" as="geometry" />
        </mxCell>
        <mxCell id="_VI_5lEFwDJ5-Uq1NYuy-11" value="" style="rounded=0;whiteSpace=wrap;html=1;" vertex="1" parent="1">
          <mxGeometry x="570" y="314" width="95" height="30" as="geometry" />
        </mxCell>
        <mxCell id="_VI_5lEFwDJ5-Uq1NYuy-13" value="blk_mq_queue_map" style="rounded=0;whiteSpace=wrap;html=1;" vertex="1" parent="1">
          <mxGeometry x="575" y="324" width="110" height="30" as="geometry" />
        </mxCell>
        <mxCell id="_VI_5lEFwDJ5-Uq1NYuy-14" value="blk_mq_tag_set" style="text;html=1;strokeColor=none;fillColor=none;align=center;verticalAlign=middle;whiteSpace=wrap;rounded=0;" vertex="1" parent="1">
          <mxGeometry x="597.5" y="230" width="40" height="20" as="geometry" />
        </mxCell>
        <mxCell id="_VI_5lEFwDJ5-Uq1NYuy-15" value="" style="rounded=0;whiteSpace=wrap;html=1;" vertex="1" parent="1">
          <mxGeometry x="770" y="325" width="40" height="30" as="geometry" />
        </mxCell>
        <mxCell id="_VI_5lEFwDJ5-Uq1NYuy-16" value="" style="rounded=0;whiteSpace=wrap;html=1;" vertex="1" parent="1">
          <mxGeometry x="810" y="325" width="40" height="30" as="geometry" />
        </mxCell>
        <mxCell id="_VI_5lEFwDJ5-Uq1NYuy-17" value="..." style="rounded=0;whiteSpace=wrap;html=1;" vertex="1" parent="1">
          <mxGeometry x="850" y="325" width="40" height="30" as="geometry" />
        </mxCell>
        <mxCell id="_VI_5lEFwDJ5-Uq1NYuy-18" value="" style="rounded=0;whiteSpace=wrap;html=1;" vertex="1" parent="1">
          <mxGeometry x="890" y="325" width="40" height="30" as="geometry" />
        </mxCell>
        <mxCell id="_VI_5lEFwDJ5-Uq1NYuy-19" value="" style="endArrow=classic;html=1;exitX=1;exitY=0.5;exitDx=0;exitDy=0;entryX=0;entryY=0.5;entryDx=0;entryDy=0;" edge="1" parent="1" source="_VI_5lEFwDJ5-Uq1NYuy-13" target="_VI_5lEFwDJ5-Uq1NYuy-15">
          <mxGeometry width="50" height="50" relative="1" as="geometry">
            <mxPoint x="685" y="331.0000000000001" as="sourcePoint" />
            <mxPoint x="840" y="406" as="targetPoint" />
          </mxGeometry>
        </mxCell>
        <mxCell id="_VI_5lEFwDJ5-Uq1NYuy-20" value="mq_map" style="edgeLabel;html=1;align=center;verticalAlign=middle;resizable=0;points=[];" vertex="1" connectable="0" parent="_VI_5lEFwDJ5-Uq1NYuy-19">
          <mxGeometry x="0.2625" y="-1" relative="1" as="geometry">
            <mxPoint x="1.2100000000000009" y="-11" as="offset" />
          </mxGeometry>
        </mxCell>
        <mxCell id="_VI_5lEFwDJ5-Uq1NYuy-21" value="map" style="text;html=1;strokeColor=none;fillColor=none;align=center;verticalAlign=middle;whiteSpace=wrap;rounded=0;" vertex="1" parent="1">
          <mxGeometry x="582" y="284" width="40" height="20" as="geometry" />
        </mxCell>
        <mxCell id="_VI_5lEFwDJ5-Uq1NYuy-22" value="" style="edgeStyle=elbowEdgeStyle;elbow=horizontal;endArrow=classic;html=1;exitX=0.998;exitY=0.13;exitDx=0;exitDy=0;exitPerimeter=0;entryX=0;entryY=0.5;entryDx=0;entryDy=0;" edge="1" parent="1" source="_VI_5lEFwDJ5-Uq1NYuy-8" target="_VI_5lEFwDJ5-Uq1NYuy-4">
          <mxGeometry width="50" height="50" relative="1" as="geometry">
            <mxPoint x="700" y="190" as="sourcePoint" />
            <mxPoint x="750" y="140" as="targetPoint" />
            <Array as="points">
              <mxPoint x="746.25" y="220" />
            </Array>
          </mxGeometry>
        </mxCell>
        <mxCell id="_VI_5lEFwDJ5-Uq1NYuy-23" value="*tags" style="edgeLabel;html=1;align=center;verticalAlign=middle;resizable=0;points=[];" vertex="1" connectable="0" parent="_VI_5lEFwDJ5-Uq1NYuy-22">
          <mxGeometry x="-0.7067" y="1" relative="1" as="geometry">
            <mxPoint x="4.08" y="-2" as="offset" />
          </mxGeometry>
        </mxCell>
        <mxCell id="_VI_5lEFwDJ5-Uq1NYuy-24" value="&lt;font color=&quot;#05467e&quot; face=&quot;helvetica neue, helvetica, arial, pingfang sc, hiragino sans gb, wenquanyi micro hei, microsoft yahei, sans-serif&quot;&gt;&lt;span style=&quot;font-size: 14px&quot;&gt;request&lt;/span&gt;&lt;/font&gt;" style="rounded=0;whiteSpace=wrap;html=1;" vertex="1" parent="1">
          <mxGeometry x="946.25" y="170" width="60" height="30" as="geometry" />
        </mxCell>
        <mxCell id="_VI_5lEFwDJ5-Uq1NYuy-25" value="" style="endArrow=classic;html=1;exitX=1;exitY=0.5;exitDx=0;exitDy=0;entryX=0;entryY=0.5;entryDx=0;entryDy=0;" edge="1" parent="1" source="_VI_5lEFwDJ5-Uq1NYuy-4" target="_VI_5lEFwDJ5-Uq1NYuy-24">
          <mxGeometry width="50" height="50" relative="1" as="geometry">
            <mxPoint x="980" y="320" as="sourcePoint" />
            <mxPoint x="1030" y="270" as="targetPoint" />
          </mxGeometry>
        </mxCell>
        <mxCell id="_VI_5lEFwDJ5-Uq1NYuy-26" value="*static_rqs" style="edgeLabel;html=1;align=center;verticalAlign=middle;resizable=0;points=[];" vertex="1" connectable="0" parent="_VI_5lEFwDJ5-Uq1NYuy-25">
          <mxGeometry x="-0.5951" y="1" relative="1" as="geometry">
            <mxPoint x="21.08" y="-14" as="offset" />
          </mxGeometry>
        </mxCell>
        <mxCell id="_VI_5lEFwDJ5-Uq1NYuy-27" value="*rqs" style="edgeLabel;html=1;align=center;verticalAlign=middle;resizable=0;points=[];" vertex="1" connectable="0" parent="1">
          <mxGeometry x="890.0010344827585" y="199.9999999999999" as="geometry" />
        </mxCell>
        <mxCell id="_VI_5lEFwDJ5-Uq1NYuy-28" value="sbitmap_queue" style="rounded=0;whiteSpace=wrap;html=1;" vertex="1" parent="1">
          <mxGeometry x="775" y="80" width="90" height="30" as="geometry" />
        </mxCell>
        <mxCell id="_VI_5lEFwDJ5-Uq1NYuy-29" value="" style="endArrow=classic;html=1;exitX=0.5;exitY=0;exitDx=0;exitDy=0;entryX=0.5;entryY=1;entryDx=0;entryDy=0;" edge="1" parent="1" source="_VI_5lEFwDJ5-Uq1NYuy-4" target="_VI_5lEFwDJ5-Uq1NYuy-28">
          <mxGeometry width="50" height="50" relative="1" as="geometry">
            <mxPoint x="680" y="160" as="sourcePoint" />
            <mxPoint x="730" y="110" as="targetPoint" />
          </mxGeometry>
        </mxCell>
        <mxCell id="_VI_5lEFwDJ5-Uq1NYuy-30" value="bitmap_tags" style="edgeLabel;html=1;align=center;verticalAlign=middle;resizable=0;points=[];" vertex="1" connectable="0" parent="_VI_5lEFwDJ5-Uq1NYuy-29">
          <mxGeometry x="-0.6046" y="1" relative="1" as="geometry">
            <mxPoint x="-32.75" y="-8.280000000000001" as="offset" />
          </mxGeometry>
        </mxCell>
        <mxCell id="_VI_5lEFwDJ5-Uq1NYuy-32" value="breserved_tags" style="edgeLabel;html=1;align=center;verticalAlign=middle;resizable=0;points=[];" vertex="1" connectable="0" parent="_VI_5lEFwDJ5-Uq1NYuy-29">
          <mxGeometry x="-0.6046" relative="1" as="geometry">
            <mxPoint x="46.25" y="-8.28" as="offset" />
          </mxGeometry>
        </mxCell>
        <mxCell id="_VI_5lEFwDJ5-Uq1NYuy-33" value="request_queue" style="rounded=0;whiteSpace=wrap;html=1;" vertex="1" parent="1">
          <mxGeometry x="370" y="200" width="90" height="170" as="geometry" />
        </mxCell>
        <mxCell id="_VI_5lEFwDJ5-Uq1NYuy-34" value="" style="endArrow=classic;html=1;" edge="1" parent="1" target="_VI_5lEFwDJ5-Uq1NYuy-8">
          <mxGeometry width="50" height="50" relative="1" as="geometry">
            <mxPoint x="462" y="304" as="sourcePoint" />
            <mxPoint x="493.75" y="294" as="targetPoint" />
          </mxGeometry>
        </mxCell>
        <mxCell id="_VI_5lEFwDJ5-Uq1NYuy-35" value="tag_set" style="edgeLabel;html=1;align=center;verticalAlign=middle;resizable=0;points=[];rotation=0;" vertex="1" connectable="0" parent="_VI_5lEFwDJ5-Uq1NYuy-34">
          <mxGeometry x="-0.8" relative="1" as="geometry">
            <mxPoint x="12.5" y="-9.06" as="offset" />
          </mxGeometry>
        </mxCell>
        <mxCell id="_VI_5lEFwDJ5-Uq1NYuy-36" value="blk_mq_ctx" style="rounded=0;whiteSpace=wrap;html=1;" vertex="1" parent="1">
          <mxGeometry x="184" y="270" width="85" height="30" as="geometry" />
        </mxCell>
        <mxCell id="_VI_5lEFwDJ5-Uq1NYuy-37" value="..." style="rounded=0;whiteSpace=wrap;html=1;" vertex="1" parent="1">
          <mxGeometry x="184" y="300" width="85" height="30" as="geometry" />
        </mxCell>
        <mxCell id="_VI_5lEFwDJ5-Uq1NYuy-39" value="blk_mq_ctx" style="rounded=0;whiteSpace=wrap;html=1;" vertex="1" parent="1">
          <mxGeometry x="184" y="330" width="85" height="30" as="geometry" />
        </mxCell>
        <mxCell id="_VI_5lEFwDJ5-Uq1NYuy-40" value="" style="shape=curlyBracket;whiteSpace=wrap;html=1;rounded=1;" vertex="1" parent="1">
          <mxGeometry x="164" y="240" width="20" height="120" as="geometry" />
        </mxCell>
        <mxCell id="_VI_5lEFwDJ5-Uq1NYuy-47" value="Per cpu" style="text;html=1;strokeColor=none;fillColor=none;align=center;verticalAlign=middle;whiteSpace=wrap;rounded=0;" vertex="1" parent="1">
          <mxGeometry x="200.5" y="210" width="52" height="20" as="geometry" />
        </mxCell>
        <mxCell id="_VI_5lEFwDJ5-Uq1NYuy-48" value="blk_mq_hw_ctx" style="rounded=0;whiteSpace=wrap;html=1;" vertex="1" parent="1">
          <mxGeometry x="184" y="434" width="85" height="30" as="geometry" />
        </mxCell>
        <mxCell id="_VI_5lEFwDJ5-Uq1NYuy-50" value="blk_mq_hw_ctx" style="rounded=0;whiteSpace=wrap;html=1;" vertex="1" parent="1">
          <mxGeometry x="184" y="464" width="85" height="30" as="geometry" />
        </mxCell>
        <mxCell id="_VI_5lEFwDJ5-Uq1NYuy-51" value="..." style="rounded=0;whiteSpace=wrap;html=1;" vertex="1" parent="1">
          <mxGeometry x="184" y="494" width="85" height="30" as="geometry" />
        </mxCell>
        <mxCell id="_VI_5lEFwDJ5-Uq1NYuy-52" value="blk_mq_hw_ctx" style="rounded=0;whiteSpace=wrap;html=1;" vertex="1" parent="1">
          <mxGeometry x="184" y="524" width="85" height="30" as="geometry" />
        </mxCell>
        <mxCell id="_VI_5lEFwDJ5-Uq1NYuy-53" value="HCTX_MAX_TYPES" style="text;whiteSpace=wrap;html=1;" vertex="1" parent="1">
          <mxGeometry x="164" y="554" width="140" height="30" as="geometry" />
        </mxCell>
        <mxCell id="_VI_5lEFwDJ5-Uq1NYuy-54" value="" style="shape=curlyBracket;whiteSpace=wrap;html=1;rounded=1;rotation=-180;" vertex="1" parent="1">
          <mxGeometry x="269" y="434" width="20" height="120" as="geometry" />
        </mxCell>
        <mxCell id="_VI_5lEFwDJ5-Uq1NYuy-62" value="" style="endArrow=classic;html=1;exitX=1.012;exitY=0.44;exitDx=0;exitDy=0;entryX=0.464;entryY=0.438;entryDx=0;entryDy=0;entryPerimeter=0;exitPerimeter=0;" edge="1" parent="1" source="_VI_5lEFwDJ5-Uq1NYuy-6" target="_VI_5lEFwDJ5-Uq1NYuy-40">
          <mxGeometry width="50" height="50" relative="1" as="geometry">
            <mxPoint x="59" y="289" as="sourcePoint" />
            <mxPoint x="109" y="239" as="targetPoint" />
          </mxGeometry>
        </mxCell>
        <mxCell id="_VI_5lEFwDJ5-Uq1NYuy-63" value="queue_ctx" style="edgeLabel;html=1;align=center;verticalAlign=middle;resizable=0;points=[];" vertex="1" connectable="0" parent="_VI_5lEFwDJ5-Uq1NYuy-62">
          <mxGeometry x="-0.6566" y="-1" relative="1" as="geometry">
            <mxPoint x="16.68" y="-12.600000000000001" as="offset" />
          </mxGeometry>
        </mxCell>
        <mxCell id="_VI_5lEFwDJ5-Uq1NYuy-64" value="" style="endArrow=classic;html=1;entryX=0.987;entryY=0.715;entryDx=0;entryDy=0;exitX=0.416;exitY=0.569;exitDx=0;exitDy=0;exitPerimeter=0;entryPerimeter=0;" edge="1" parent="1" source="_VI_5lEFwDJ5-Uq1NYuy-40" target="_VI_5lEFwDJ5-Uq1NYuy-6">
          <mxGeometry width="50" height="50" relative="1" as="geometry">
            <mxPoint x="109" y="419" as="sourcePoint" />
            <mxPoint x="159" y="369" as="targetPoint" />
          </mxGeometry>
        </mxCell>
        <mxCell id="_VI_5lEFwDJ5-Uq1NYuy-65" value="ctxs" style="edgeLabel;html=1;align=center;verticalAlign=middle;resizable=0;points=[];" vertex="1" connectable="0" parent="_VI_5lEFwDJ5-Uq1NYuy-64">
          <mxGeometry x="-0.2168" y="1" relative="1" as="geometry">
            <mxPoint x="16.42" y="4.87" as="offset" />
          </mxGeometry>
        </mxCell>
        <mxCell id="_VI_5lEFwDJ5-Uq1NYuy-67" value="" style="endArrow=classic;html=1;entryX=0.471;entryY=0.797;entryDx=0;entryDy=0;entryPerimeter=0;" edge="1" parent="1">
          <mxGeometry width="50" height="50" relative="1" as="geometry">
            <mxPoint x="360" y="292" as="sourcePoint" />
            <mxPoint x="279.5799999999999" y="292.36" as="targetPoint" />
            <Array as="points">
              <mxPoint x="320" y="292" />
            </Array>
          </mxGeometry>
        </mxCell>
        <mxCell id="_VI_5lEFwDJ5-Uq1NYuy-68" value="queue_ctx" style="edgeLabel;html=1;align=center;verticalAlign=middle;resizable=0;points=[];" vertex="1" connectable="0" parent="_VI_5lEFwDJ5-Uq1NYuy-67">
          <mxGeometry x="-0.7091" y="-2" relative="1" as="geometry">
            <mxPoint x="-18.28" y="-6" as="offset" />
          </mxGeometry>
        </mxCell>
        <mxCell id="_VI_5lEFwDJ5-Uq1NYuy-69" value="" style="shape=curlyBracket;whiteSpace=wrap;html=1;rounded=1;rotation=-180;" vertex="1" parent="1">
          <mxGeometry x="269" y="240" width="20" height="120" as="geometry" />
        </mxCell>
        <mxCell id="_VI_5lEFwDJ5-Uq1NYuy-70" value="" style="shape=curlyBracket;whiteSpace=wrap;html=1;rounded=1;rotation=90;" vertex="1" parent="1">
          <mxGeometry x="216" y="380" width="20" height="84" as="geometry" />
        </mxCell>
        <mxCell id="_VI_5lEFwDJ5-Uq1NYuy-71" value="" style="endArrow=classic;html=1;entryX=0.1;entryY=0.5;entryDx=0;entryDy=0;entryPerimeter=0;exitX=0.1;exitY=0.5;exitDx=0;exitDy=0;exitPerimeter=0;" edge="1" parent="1" source="_VI_5lEFwDJ5-Uq1NYuy-73" target="_VI_5lEFwDJ5-Uq1NYuy-70">
          <mxGeometry width="50" height="50" relative="1" as="geometry">
            <mxPoint x="231" y="380" as="sourcePoint" />
            <mxPoint x="287.5" y="470.0000000000001" as="targetPoint" />
          </mxGeometry>
        </mxCell>
        <mxCell id="_VI_5lEFwDJ5-Uq1NYuy-72" value="&lt;span style=&quot;font-size: 12px ; text-align: left ; background-color: rgb(248 , 249 , 250)&quot;&gt;hctxs&lt;/span&gt;" style="edgeLabel;html=1;align=center;verticalAlign=middle;resizable=0;points=[];" vertex="1" connectable="0" parent="_VI_5lEFwDJ5-Uq1NYuy-71">
          <mxGeometry x="-0.7238" relative="1" as="geometry">
            <mxPoint x="0.07000000000000028" y="-4.8300000000000125" as="offset" />
          </mxGeometry>
        </mxCell>
        <mxCell id="_VI_5lEFwDJ5-Uq1NYuy-73" value="" style="shape=curlyBracket;whiteSpace=wrap;html=1;rounded=1;rotation=-90;" vertex="1" parent="1">
          <mxGeometry x="216.5" y="330" width="20" height="84" as="geometry" />
        </mxCell>
        <mxCell id="_VI_5lEFwDJ5-Uq1NYuy-74" value="" style="endArrow=classic;html=1;exitX=0.505;exitY=0.182;exitDx=0;exitDy=0;exitPerimeter=0;entryX=0;entryY=0.75;entryDx=0;entryDy=0;" edge="1" parent="1">
          <mxGeometry width="50" height="50" relative="1" as="geometry">
            <mxPoint x="278.89999999999986" y="305.3200000000001" as="sourcePoint" />
            <mxPoint x="360" y="304.66000000000014" as="targetPoint" />
          </mxGeometry>
        </mxCell>
        <mxCell id="_VI_5lEFwDJ5-Uq1NYuy-75" value="queue" style="edgeLabel;html=1;align=center;verticalAlign=middle;resizable=0;points=[];" vertex="1" connectable="0" parent="_VI_5lEFwDJ5-Uq1NYuy-74">
          <mxGeometry x="-0.7956" y="2" relative="1" as="geometry">
            <mxPoint x="16.84" y="10.75" as="offset" />
          </mxGeometry>
        </mxCell>
        <mxCell id="_VI_5lEFwDJ5-Uq1NYuy-77" value="" style="endArrow=classic;html=1;exitX=-0.015;exitY=0.686;exitDx=0;exitDy=0;entryX=0.1;entryY=0.5;entryDx=0;entryDy=0;entryPerimeter=0;exitPerimeter=0;" edge="1" parent="1" source="_VI_5lEFwDJ5-Uq1NYuy-33" target="_VI_5lEFwDJ5-Uq1NYuy-54">
          <mxGeometry width="50" height="50" relative="1" as="geometry">
            <mxPoint x="440" y="480" as="sourcePoint" />
            <mxPoint x="490" y="430" as="targetPoint" />
          </mxGeometry>
        </mxCell>
        <mxCell id="_VI_5lEFwDJ5-Uq1NYuy-78" value="*queue_hw_ctx" style="edgeLabel;html=1;align=center;verticalAlign=middle;resizable=0;points=[];" vertex="1" connectable="0" parent="_VI_5lEFwDJ5-Uq1NYuy-77">
          <mxGeometry x="-0.5266" y="1" relative="1" as="geometry">
            <mxPoint x="-20.31" y="-14.45" as="offset" />
          </mxGeometry>
        </mxCell>
        <mxCell id="_VI_5lEFwDJ5-Uq1NYuy-79" value="&lt;font color=&quot;#333333&quot; face=&quot;helvetica neue, helvetica, arial, pingfang sc, hiragino sans gb, wenquanyi micro hei, microsoft yahei, sans-serif&quot;&gt;&lt;span style=&quot;font-size: 14px&quot;&gt;backing_dev_info&lt;/span&gt;&lt;/font&gt;" style="rounded=0;whiteSpace=wrap;html=1;" vertex="1" parent="1">
          <mxGeometry x="359" y="510" width="110" height="30" as="geometry" />
        </mxCell>
        <mxCell id="_VI_5lEFwDJ5-Uq1NYuy-80" value="" style="endArrow=classic;html=1;exitX=0.5;exitY=1;exitDx=0;exitDy=0;entryX=0.5;entryY=0;entryDx=0;entryDy=0;" edge="1" parent="1" source="_VI_5lEFwDJ5-Uq1NYuy-33" target="_VI_5lEFwDJ5-Uq1NYuy-79">
          <mxGeometry width="50" height="50" relative="1" as="geometry">
            <mxPoint x="630" y="510" as="sourcePoint" />
            <mxPoint x="680" y="460" as="targetPoint" />
          </mxGeometry>
        </mxCell>
        <mxCell id="_VI_5lEFwDJ5-Uq1NYuy-82" value="backing_dev_info" style="edgeLabel;html=1;align=center;verticalAlign=middle;resizable=0;points=[];" vertex="1" connectable="0" parent="_VI_5lEFwDJ5-Uq1NYuy-80">
          <mxGeometry x="-0.1788" y="2" relative="1" as="geometry">
            <mxPoint x="-2.59" y="-27.51" as="offset" />
          </mxGeometry>
        </mxCell>
        <mxCell id="_VI_5lEFwDJ5-Uq1NYuy-83" value="" style="endArrow=classic;html=1;entryX=0.007;entryY=0.203;entryDx=0;entryDy=0;entryPerimeter=0;" edge="1" parent="1" target="_VI_5lEFwDJ5-Uq1NYuy-7">
          <mxGeometry width="50" height="50" relative="1" as="geometry">
            <mxPoint x="461" y="242" as="sourcePoint" />
            <mxPoint x="760" y="470" as="targetPoint" />
          </mxGeometry>
        </mxCell>
        <mxCell id="_VI_5lEFwDJ5-Uq1NYuy-84" value="queuedata" style="edgeLabel;html=1;align=center;verticalAlign=middle;resizable=0;points=[];" vertex="1" connectable="0" parent="_VI_5lEFwDJ5-Uq1NYuy-83">
          <mxGeometry x="-0.5799" relative="1" as="geometry">
            <mxPoint x="12.33" y="-12.1" as="offset" />
          </mxGeometry>
        </mxCell>
        <mxCell id="_VI_5lEFwDJ5-Uq1NYuy-85" value="" style="endArrow=classic;html=1;entryX=1.031;entryY=0.387;entryDx=0;entryDy=0;entryPerimeter=0;" edge="1" parent="1">
          <mxGeometry width="50" height="50" relative="1" as="geometry">
            <mxPoint x="537" y="253" as="sourcePoint" />
            <mxPoint x="462.78999999999996" y="252.79000000000008" as="targetPoint" />
          </mxGeometry>
        </mxCell>
        <mxCell id="_VI_5lEFwDJ5-Uq1NYuy-86" value="q" style="edgeLabel;html=1;align=center;verticalAlign=middle;resizable=0;points=[];" vertex="1" connectable="0" parent="_VI_5lEFwDJ5-Uq1NYuy-85">
          <mxGeometry x="-0.6182" relative="1" as="geometry">
            <mxPoint as="offset" />
          </mxGeometry>
        </mxCell>
        <mxCell id="_VI_5lEFwDJ5-Uq1NYuy-91" value="" style="endArrow=classic;html=1;exitX=1.001;exitY=0.888;exitDx=0;exitDy=0;exitPerimeter=0;entryX=-0.006;entryY=0.922;entryDx=0;entryDy=0;entryPerimeter=0;" edge="1" parent="1" source="_VI_5lEFwDJ5-Uq1NYuy-33" target="_VI_5lEFwDJ5-Uq1NYuy-8">
          <mxGeometry width="50" height="50" relative="1" as="geometry">
            <mxPoint x="610" y="490" as="sourcePoint" />
            <mxPoint x="550" y="349" as="targetPoint" />
          </mxGeometry>
        </mxCell>
        <mxCell id="_VI_5lEFwDJ5-Uq1NYuy-92" value="tag_set_list" style="edgeLabel;html=1;align=center;verticalAlign=middle;resizable=0;points=[];rotation=90;" vertex="1" connectable="0" parent="_VI_5lEFwDJ5-Uq1NYuy-91">
          <mxGeometry x="-0.6319" y="-1" relative="1" as="geometry">
            <mxPoint as="offset" />
          </mxGeometry>
        </mxCell>
        <mxCell id="_VI_5lEFwDJ5-Uq1NYuy-93" value="tag_list" style="edgeLabel;html=1;align=center;verticalAlign=middle;resizable=0;points=[];rotation=90;" vertex="1" connectable="0" parent="_VI_5lEFwDJ5-Uq1NYuy-91">
          <mxGeometry x="0.2531" relative="1" as="geometry">
            <mxPoint x="8.88" as="offset" />
          </mxGeometry>
        </mxCell>
      </root>
    </mxGraphModel>
  </diagram>
</mxfile>
